<?xml version="1.0" encoding="utf-8"?><svg xmlns="http://www.w3.org/2000/svg" xmlns:xlink="http://www.w3.org/1999/xlink" width="2015" height="977" preserveAspectRatio="xMidYMid" viewBox="0 0 2015 977" style="z-index:1;margin-right:-1.6px;display:block;background-repeat-y:initial;background-repeat-x:initial;background-color:rgb(153, 153, 153);animation-play-state:paused" ><g transform="translate(1007.5,488.5) scale(-1,1) translate(-1007.5,-488.5)" style="transform:matrix(-1, 0, 0, 1, 2015, 0);animation-play-state:paused" ><linearGradient id="lg-0.6656286731958301" x1="0" x2="0.5" y1="0" y2="0" gradientUnits="objectBoundingBox" style="animation-play-state:paused" ><stop stop-color="#0c162c" offset="0" style="animation-play-state:paused" ></stop>

  
<stop stop-color="#000000" offset="1" style="animation-play-state:paused" ></stop></linearGradient>
<path d="M -1152.55 977 Q -1042.19 740.124 -997.52 502.402 T -547.602 74.2619 T 153.16 -265.512 T 1036.17 -483.661 T 2015 -558.83 T 2993.83 -483.661 T 3876.84 -265.512 T 4577.6 74.2619 T 5027.52 502.402 T 5182.55 977" fill="url(#lg-0.6656286731958301)" opacity="1" style="animation-play-state:paused" ></path>
<path d="M -926.297 977 Q -801.909 756.235 -782.34 536.302 T -364.559 138.743 T 286.149 -176.762 T 1106.09 -379.328 T 2015 -449.128 T 2923.91 -379.328 T 3743.85 -176.762 T 4394.56 138.743 T 4812.34 536.302 T 4956.3 977" fill="url(#lg-0.6656286731958301)" opacity="1" style="animation-play-state:paused" ></path>
<path d="M -700.044 977 Q -623.568 755.085 -536.306 526.756 T -64.844 130.818 T 657.478 -163.058 T 1543.54 -319.426 T 2486.46 -319.426 T 3372.52 -163.058 T 4094.84 130.818 T 4566.31 526.756 T 4730.04 977" fill="url(#lg-0.6656286731958301)" opacity="1" style="animation-play-state:paused" ></path>
<path d="M -473.79 977 Q -402.757 745.402 -284.342 515.207 T 255.16 123.718 T 1062.58 -137.867 T 2015 -229.723 T 2967.42 -137.867 T 3774.84 123.718 T 4314.34 515.207 T 4503.79 977" fill="url(#lg-0.6656286731958301)" opacity="1" style="animation-play-state:paused" ></path>
<path d="M -247.536 977 Q -132.434 772.099 -75.311 557.188 T 415.145 201.289 T 1149.16 -36.5155 T 2015 -120.021 T 2880.84 -36.5155 T 3614.85 201.289 T 4105.31 557.188 T 4277.54 977" fill="url(#lg-0.6656286731958301)" opacity="1" style="animation-play-state:paused" ></path>
<path d="M -21.2827 977 Q 100.711 767.319 180.373 548.618 T 745.398 205.083 T 1561.88 14.435 T 2468.12 14.435 T 3284.6 205.083 T 3849.63 548.618 T 4051.28 977" fill="url(#lg-0.6656286731958301)" opacity="1" style="animation-play-state:paused" ></path>
<path d="M 204.971 977 Q 360.041 760.879 447.469 538.191 T 1109.99 216.961 T 2015 99.3829 T 2920.01 216.961 T 3582.53 538.191 T 3825.03 977" fill="url(#lg-0.6656286731958301)" opacity="1" style="animation-play-state:paused" ></path>
<path d="M 431.225 977 Q 556.818 752.979 733.699 525.631 T 1525.59 246.67 T 2504.41 246.67 T 3296.3 525.631 T 3598.78 977" fill="url(#lg-0.6656286731958301)" opacity="1" style="animation-play-state:paused" ></path>
<path d="M 657.478 977 Q 793.085 787.068 916.742 590.112 T 1595.5 351.002 T 2434.5 351.002 T 3113.26 590.112 T 3372.52 977" fill="url(#lg-0.6656286731958301)" opacity="1" style="animation-play-state:paused" ></path>
<path d="M 883.732 977 Q 1058.05 779.774 1215.07 589.144 T 2015 428.489 T 2814.93 589.144 T 3146.27 977" fill="url(#lg-0.6656286731958301)" opacity="1" style="animation-play-state:paused" ></path>
<path d="M 1109.99 977 Q 1240.24 765.304 1562.49 596.981 T 2467.51 596.981 T 2920.01 977" fill="url(#lg-0.6656286731958301)" opacity="1" style="animation-play-state:paused" ></path>
<path d="M 1336.24 977 Q 1476.36 825.854 1675.62 691.985 T 2354.38 691.985 T 2693.76 977" fill="url(#lg-0.6656286731958301)" opacity="1" style="animation-play-state:paused" ></path>
<path d="M 1562.49 977 Q 1721.77 842.916 2015 757.596 T 2467.51 977" fill="url(#lg-0.6656286731958301)" opacity="1" style="animation-play-state:paused" ></path>
<path d="M 1788.75 977 Q 2015 903.733 2241.25 977" fill="url(#lg-0.6656286731958301)" opacity="1" style="animation-play-state:paused" ></path></g></svg>